<?xml version="1.0" encoding="UTF-8"?>
<svg id="Layer_2" data-name="Layer 2" xmlns="http://www.w3.org/2000/svg" viewBox="0 0 747.16 143.11">
  <defs>
    <style>
      .cls-1 {
        fill: #fff;
      }

      .cls-2 {
        fill: #d19750;
      }
    </style>
  </defs>
  <g id="Layer_1-2" data-name="Layer 1">
    <g>
      <g>
        <polygon class="cls-2" points="0 0 21.17 15.7 21.17 57.68 63.52 24.46 93.82 48.92 93.82 75.02 63.52 51.11 0 100.76 0 0"/>
        <polygon class="cls-2" points="105.32 16.43 126.32 0 126.32 143.11 63.52 93.46 0 143.11 0 117.37 63.16 66.81 105.14 99.67 105.32 16.43"/>
      </g>
      <g>
        <path class="cls-1" d="M224.32,58.97l-12.26,43.89h-10.38l-8.24-31.25-8.62,31.25-10.31,.06-11.82-43.96h9.43l7.73,34.08,8.93-34.08h9.81l8.43,33.9,7.8-33.9h9.5Z"/>
        <path class="cls-1" d="M238.85,58.97v43.89h-8.8V58.97h8.8Z"/>
        <path class="cls-1" d="M254.41,101.74c-2.45-1.05-4.39-2.56-5.82-4.53-1.43-1.97-2.16-4.3-2.2-6.98h9.43c.12,1.8,.76,3.23,1.92,4.28,1.15,1.05,2.74,1.57,4.75,1.57s3.67-.49,4.84-1.48c1.17-.98,1.76-2.27,1.76-3.87,0-1.3-.4-2.37-1.19-3.21-.8-.84-1.79-1.5-2.99-1.98-1.2-.48-2.84-1.02-4.94-1.6-2.85-.84-5.17-1.67-6.95-2.48-1.78-.82-3.31-2.05-4.59-3.71-1.28-1.66-1.92-3.87-1.92-6.63,0-2.6,.65-4.86,1.95-6.79,1.3-1.93,3.12-3.41,5.47-4.43,2.35-1.03,5.03-1.54,8.05-1.54,4.53,0,8.21,1.1,11.04,3.3s4.39,5.27,4.69,9.21h-9.68c-.08-1.51-.72-2.76-1.92-3.74-1.19-.98-2.78-1.48-4.75-1.48-1.72,0-3.09,.44-4.12,1.32s-1.54,2.16-1.54,3.84c0,1.17,.39,2.15,1.16,2.92,.78,.78,1.74,1.41,2.89,1.89,1.15,.48,2.78,1.04,4.87,1.67,2.85,.84,5.18,1.68,6.98,2.52,1.8,.84,3.35,2.1,4.65,3.77,1.3,1.68,1.95,3.88,1.95,6.6,0,2.35-.61,4.53-1.82,6.54-1.22,2.01-3,3.62-5.34,4.81-2.35,1.2-5.14,1.79-8.36,1.79-3.06,0-5.82-.53-8.27-1.57Z"/>
        <path class="cls-1" d="M313.34,61.68c3.5,1.8,6.2,4.37,8.11,7.71,1.91,3.33,2.86,7.2,2.86,11.6s-.95,8.25-2.86,11.54c-1.91,3.29-4.61,5.84-8.11,7.64-3.5,1.8-7.56,2.7-12.17,2.7h-15.34V58.97h15.34c4.61,0,8.67,.9,12.17,2.7Zm-1.79,29.94c2.52-2.52,3.77-6.06,3.77-10.63s-1.26-8.14-3.77-10.72c-2.51-2.58-6.08-3.87-10.69-3.87h-6.23v28.99h6.23c4.61,0,8.18-1.26,10.69-3.77Z"/>
        <path class="cls-1" d="M339.97,100.42c-3.44-1.93-6.16-4.6-8.18-8.02-2.01-3.42-3.02-7.28-3.02-11.6s1.01-8.12,3.02-11.54c2.01-3.42,4.74-6.09,8.18-8.02,3.44-1.93,7.21-2.89,11.32-2.89s7.93,.96,11.35,2.89c3.42,1.93,6.12,4.6,8.11,8.02,1.99,3.42,2.99,7.26,2.99,11.54s-1,8.19-2.99,11.6c-1.99,3.42-4.71,6.09-8.14,8.02-3.44,1.93-7.21,2.89-11.32,2.89s-7.88-.96-11.32-2.89Zm18.3-6.76c2.01-1.2,3.59-2.9,4.72-5.12,1.13-2.22,1.7-4.8,1.7-7.73s-.57-5.5-1.7-7.71c-1.13-2.2-2.7-3.89-4.72-5.06-2.01-1.17-4.34-1.76-6.98-1.76s-4.98,.59-7.01,1.76c-2.03,1.18-3.62,2.86-4.75,5.06-1.13,2.2-1.7,4.77-1.7,7.71s.57,5.51,1.7,7.73c1.13,2.22,2.71,3.93,4.75,5.12s4.37,1.79,7.01,1.79,4.97-.6,6.98-1.79Z"/>
        <path class="cls-1" d="M428.14,58.97v43.89h-8.8v-28.55l-11.76,28.55h-6.67l-11.82-28.55v28.55h-8.8V58.97h10l13.96,32.64,13.96-32.64h9.94Z"/>
        <path class="cls-1" d="M478.19,93.12h-19.12l-3.52,9.75h-6.04l15.85-43.58h6.6l15.78,43.58h-6.04l-3.52-9.75Zm-1.63-4.65l-7.92-22.14-7.92,22.14h15.85Z"/>
        <path class="cls-1" d="M495.42,69.38c1.93-3.42,4.56-6.09,7.89-8.02,3.33-1.93,7.03-2.89,11.1-2.89,4.78,0,8.95,1.15,12.51,3.46,3.56,2.31,6.16,5.58,7.8,9.81h-6.85c-1.22-2.64-2.97-4.67-5.25-6.1-2.29-1.43-5.02-2.14-8.21-2.14s-5.81,.71-8.24,2.14-4.34,3.45-5.72,6.07c-1.38,2.62-2.08,5.69-2.08,9.21s.69,6.53,2.08,9.15c1.38,2.62,3.29,4.64,5.72,6.07,2.43,1.43,5.18,2.14,8.24,2.14s5.92-.7,8.21-2.11c2.28-1.4,4.03-3.43,5.25-6.07h6.85c-1.63,4.19-4.23,7.43-7.8,9.72s-7.74,3.43-12.51,3.43c-4.07,0-7.77-.95-11.1-2.86-3.33-1.91-5.96-4.56-7.89-7.96-1.93-3.39-2.89-7.23-2.89-11.51s.96-8.12,2.89-11.54Z"/>
        <path class="cls-1" d="M569.13,93.12h-19.12l-3.52,9.75h-6.04l15.85-43.58h6.6l15.78,43.58h-6.04l-3.52-9.75Zm-1.63-4.65l-7.92-22.14-7.92,22.14h15.85Z"/>
        <path class="cls-1" d="M611.67,61.71c3.5,1.78,6.18,4.33,8.05,7.64,1.87,3.31,2.8,7.21,2.8,11.7s-.93,8.38-2.8,11.67c-1.87,3.29-4.55,5.81-8.05,7.55-3.5,1.74-7.64,2.61-12.42,2.61h-13.65V59.04h13.65c4.78,0,8.92,.89,12.42,2.67Zm.53,31.95c2.98-3,4.47-7.2,4.47-12.61s-1.5-9.71-4.5-12.77c-3-3.06-7.31-4.59-12.92-4.59h-7.92v34.46h7.92c5.66,0,9.98-1.5,12.95-4.5Z"/>
        <path class="cls-1" d="M635.79,63.69v14.65h15.97v4.72h-15.97v15.09h17.86v4.72h-23.58V58.97h23.58v4.72h-17.86Z"/>
        <path class="cls-1" d="M706.79,59.35v43.52h-5.72v-32.45l-14.46,32.45h-4.03l-14.53-32.51v32.51h-5.72V59.35h6.16l16.1,35.97,16.1-35.97h6.1Z"/>
        <path class="cls-1" d="M747.16,59.04l-14.28,27.29v16.54h-5.72v-16.54l-14.34-27.29h6.35l10.82,22.2,10.82-22.2h6.35Z"/>
      </g>
    </g>
  </g>
</svg>